<svg version="1.1" class="logo-svg" xmlns="http://www.w3.org/2000/svg" xmlns:xlink="http://www.w3.org/1999/xlink"
        x="0px" y="0px" viewBox="0 0 116.8 21" style="enable-background:new 0 0 116.8 21;" xml:space="preserve"
        width="160" height="29">
        <title>Nelson Schoenen Logo Copy</title>
        <g>
                <path d="M16.9,20.7L7.6,9.9C6.9,9.1,6.2,8.3,5.5,7.4H5.4C5.5,8,5.5,9.4,5.5,10.3v10.4H0.3V0.2h5.2l9.1,10.3c0.7,0.8,1.4,1.6,2,2.5
		h0.1c-0.1-1.1-0.1-2.5-0.1-3.4V0.2h5.2v20.5H16.9z"></path>
                <path d="M25.9,20.7V0.2h13.5L38.2,4h-7v4.3h7.1v3.9h-7.1v4.7h8.2v3.8L25.9,20.7L25.9,20.7z"></path>
                <path d="M42.7,20.7V0.2h5.2v16.6h6.3v3.9H42.7z"></path>
                <path d="M61.8,21c-3.3,0-5.7-1.1-6.6-1.6l1.2-3.7c1.1,0.7,3.1,1.5,5.1,1.5c1.5,0,3.2-0.5,3.2-1.9c0-2.5-5.5-2.9-8.2-5.7
		c-0.9-0.9-1.4-2.1-1.4-3.6c0-3.1,2.8-6,7.9-6c2.4,0,4.5,0.6,5.9,1.3l-0.1,4c-2.1-1-3.6-1.5-5.5-1.5c-1.6,0-2.7,0.7-2.7,1.6
		c0,3.3,9.6,2.9,9.6,9.4C70.3,18.6,66.5,21,61.8,21z"></path>
                <path d="M89.9,17.9c-1.8,2-4.4,3.1-7.5,3.1c-3,0-5.3-0.9-7.1-2.5c-2-1.9-3.1-4.7-3.1-7.8c0-3,1-5.7,2.8-7.7c1.8-1.9,4.3-3,7.3-3
		c3.2,0,5.9,1.1,7.7,3.1c1.7,1.9,2.4,4.4,2.4,7.3C92.6,13.3,91.7,16,89.9,17.9z M82.4,3.8c-3.1,0-5.4,2.4-5.4,6.7s2.4,6.7,5.4,6.7
		c3,0,5.4-2.4,5.4-6.7C87.8,6.2,85.4,3.8,82.4,3.8z"></path>
                <path d="M111.7,20.7l-9.4-10.8c-0.7-0.8-1.4-1.6-2.1-2.5h-0.1c0.1,0.7,0.1,2.1,0.1,2.9v10.4H95V0.2h5.2l9.1,10.3
		c0.7,0.8,1.4,1.6,2,2.5h0.1c-0.1-1.1-0.1-2.5-0.1-3.4V0.2h5.2v20.5H111.7z"></path>
        </g>
</svg>